<?xml version="1.0" standalone="no"?>
<!DOCTYPE svg PUBLIC "-//W3C//DTD SVG 20010904//EN"
 "http://www.w3.org/TR/2001/REC-SVG-20010904/DTD/svg10.dtd">
<svg version="1.0" xmlns="http://www.w3.org/2000/svg"
 width="1395.000000pt" height="388.000000pt" viewBox="0 0 1395.000000 388.000000"
 preserveAspectRatio="xMidYMid meet">

<g transform="translate(0.000000,388.000000) scale(0.100000,-0.100000)"
fill="#000000" stroke="none">
<path d="M7820 3115 c-106 -14 -162 -32 -215 -68 -88 -60 -128 -173 -91 -261
43 -103 143 -158 400 -217 235 -55 286 -82 256 -139 -21 -40 -75 -53 -220 -54
-174 -1 -258 15 -403 78 l-38 17 3 -108 3 -107 30 -9 c142 -42 246 -57 400
-56 162 0 241 14 328 58 74 38 121 95 137 166 28 123 -37 221 -190 288 -49 22
-110 38 -335 93 -89 21 -135 44 -141 70 -8 33 0 42 58 59 107 31 288 16 454
-40 41 -14 77 -25 79 -25 3 0 5 45 5 99 l0 100 -52 14 c-92 26 -150 36 -257
47 -57 5 -106 9 -110 9 -3 -1 -49 -7 -101 -14z"/>
<path d="M9060 3119 c-284 -30 -450 -165 -483 -395 -20 -135 18 -274 99 -364
103 -114 262 -170 484 -170 307 0 504 112 566 321 20 68 21 219 1 287 -54 179
-216 295 -442 316 -39 4 -86 9 -105 10 -19 2 -73 0 -120 -5z m244 -204 c76
-20 139 -65 173 -123 25 -42 28 -57 28 -137 0 -81 -3 -95 -28 -138 -57 -97
-170 -142 -337 -134 -123 5 -161 16 -227 61 -136 93 -139 325 -6 420 42 30 60
37 128 56 51 14 207 11 269 -5z"/>
<path d="M2985 3088 c-3 -7 -4 -206 -3 -443 l3 -430 115 0 115 0 3 298 c1 163
6 297 10 297 4 0 41 -68 82 -151 41 -82 109 -216 151 -297 l76 -147 110 -3
c80 -2 113 1 120 10 6 7 75 140 154 295 79 156 147 283 152 283 4 0 7 -127 7
-282 0 -156 4 -289 8 -296 6 -9 37 -12 118 -10 l109 3 0 440 0 440 -158 0
-158 0 -73 -140 c-41 -77 -116 -222 -168 -323 -52 -101 -99 -184 -104 -185
-10 -2 -47 65 -216 393 -66 129 -125 241 -131 248 -7 9 -52 12 -164 12 -114 0
-155 -3 -158 -12z"/>
<path d="M4888 3058 c-13 -24 -86 -167 -162 -318 -77 -151 -165 -326 -197
-387 -33 -62 -59 -120 -59 -128 0 -13 20 -15 124 -15 l124 0 40 85 41 85 241
0 240 0 42 -85 42 -85 128 0 c71 0 128 2 128 4 0 3 -220 439 -400 791 l-46 90
-131 3 -131 3 -24 -43z m233 -345 c39 -79 67 -148 64 -153 -8 -13 -282 -13
-289 -1 -8 13 137 310 148 304 4 -3 39 -70 77 -150z"/>
<path d="M5768 3094 c-5 -4 -8 -205 -8 -446 l0 -439 343 4 c293 3 351 6 407
22 207 58 310 200 310 426 0 169 -70 304 -190 368 -113 60 -133 63 -510 68
-190 3 -348 1 -352 -3z m699 -221 c77 -38 105 -86 111 -192 5 -93 -9 -150 -50
-197 -56 -64 -146 -84 -375 -84 -128 0 -152 2 -157 16 -8 21 -8 458 1 480 6
15 23 16 209 11 198 -5 204 -6 261 -34z"/>
<path d="M7025 3088 c-3 -7 -4 -206 -3 -443 l3 -430 118 -3 117 -3 -2 443 -3
443 -113 3 c-84 2 -114 -1 -117 -10z"/>
<path d="M9970 2655 l0 -445 115 0 115 0 0 295 c0 229 3 295 13 295 6 0 138
-133 292 -295 l280 -295 128 0 127 0 -2 443 -3 442 -112 3 -113 3 0 -288 c0
-158 -4 -294 -8 -301 -6 -9 -94 77 -292 288 l-284 300 -128 0 -128 0 0 -445z"/>
<path d="M2295 1960 l-110 -110 -5 -93 -5 -92 -91 -3 -90 -3 -112 -112 -112
-112 110 -110 110 -110 93 -5 92 -5 5 -92 5 -93 112 -112 113 -113 107 108
108 107 5 98 5 97 97 5 98 5 96 95 c52 52 100 103 105 113 9 16 -6 36 -97 127
l-107 109 -96 3 -96 3 -3 95 -3 95 -107 108 c-59 59 -109 107 -112 107 -3 0
-55 -50 -115 -110z m213 -327 c43 -20 96 -83 110 -132 18 -58 14 -100 -12
-158 -46 -97 -154 -147 -255 -117 -138 41 -202 191 -135 315 57 103 182 143
292 92z"/>
<path d="M1037 1879 c-316 -33 -491 -194 -491 -449 0 -288 220 -452 604 -452
134 1 271 24 355 61 l45 20 0 100 c0 56 -3 101 -6 101 -4 0 -23 -9 -43 -19
-161 -86 -424 -105 -569 -41 -98 44 -152 125 -152 230 0 183 154 282 416 266
118 -7 193 -24 282 -66 35 -16 66 -30 68 -30 2 0 4 45 4 100 l0 99 -29 16
c-65 33 -308 80 -388 74 -10 -1 -53 -5 -96 -10z"/>
<path d="M6297 1879 c-220 -23 -381 -114 -452 -254 -55 -109 -55 -278 -1 -389
56 -114 198 -209 360 -242 168 -33 431 -12 561 45 l46 20 -3 98 c-2 59 -7 97
-13 96 -5 -2 -49 -18 -97 -38 -208 -85 -490 -65 -592 41 -75 78 -88 216 -31
309 56 91 157 130 335 130 136 0 219 -16 317 -60 39 -18 74 -30 77 -27 3 3 6
47 6 99 l0 94 -42 18 c-88 36 -297 75 -375 70 -10 -1 -53 -5 -96 -10z"/>
<path d="M11819 1879 c-179 -19 -300 -70 -389 -166 -82 -87 -104 -147 -103
-283 0 -135 22 -196 100 -280 68 -74 180 -132 298 -156 168 -34 430 -13 560
45 l46 20 -3 98 c-2 59 -7 97 -13 96 -5 -2 -49 -18 -97 -38 -208 -85 -490 -65
-592 41 -71 74 -87 198 -38 295 30 59 63 86 150 120 48 19 77 23 182 23 146 1
226 -14 327 -59 39 -18 74 -30 77 -27 3 3 6 47 6 99 l0 94 -42 18 c-88 36
-297 75 -375 70 -10 -1 -52 -5 -94 -10z"/>
<path d="M12815 1876 c-126 -19 -176 -39 -238 -95 -45 -40 -67 -93 -67 -156 0
-67 15 -99 71 -149 65 -59 163 -96 359 -136 179 -36 240 -62 240 -104 0 -105
-376 -112 -608 -10 -40 18 -54 20 -58 10 -3 -7 -4 -52 -2 -101 l3 -88 40 -14
c158 -54 458 -73 615 -38 162 37 250 125 250 253 0 47 -6 67 -29 104 -53 83
-143 129 -350 178 -266 63 -291 73 -291 116 0 31 23 42 113 55 95 14 240 -1
357 -36 146 -45 130 -52 130 58 l0 96 -52 16 c-147 44 -349 61 -483 41z"/>
<path d="M3227 1853 c-4 -3 -7 -138 -7 -299 0 -271 2 -297 20 -348 57 -150
228 -228 500 -227 253 0 421 72 484 206 l26 54 0 310 0 311 -115 0 -115 0 0
-244 c0 -342 -8 -372 -110 -423 -50 -26 -65 -28 -165 -28 -124 0 -179 13 -226
52 -57 48 -60 68 -59 353 0 141 -2 265 -6 274 -5 13 -24 16 -113 16 -59 0
-111 -3 -114 -7z"/>
<path d="M4517 1853 c-4 -3 -7 -197 -7 -430 l0 -423 120 0 120 0 0 283 c0 156
3 286 6 289 3 3 134 -124 291 -283 l286 -289 129 0 128 0 -2 428 -3 427 -115
0 -115 0 -5 -289 -5 -289 -285 291 -285 292 -126 0 c-69 0 -129 -3 -132 -7z"/>
<path d="M7037 1854 c-4 -4 -7 -198 -7 -431 l0 -423 120 0 120 0 -2 428 -3
427 -111 3 c-60 1 -113 -1 -117 -4z"/>
<path d="M7540 1430 l0 -430 430 0 430 0 0 90 c0 50 -1 91 -2 92 -2 1 -142 5
-313 8 l-310 5 -3 333 -2 332 -115 0 -115 0 0 -430z"/>
<path d="M8543 1844 c-11 -29 5 -268 21 -320 44 -142 167 -212 387 -222 139
-6 231 11 331 62 37 18 70 31 73 28 12 -13 3 -77 -16 -111 -44 -80 -161 -121
-342 -121 -145 0 -264 17 -385 56 -74 24 -73 26 -70 -83 l3 -97 43 -13 c153
-44 482 -59 634 -28 173 35 280 101 341 210 21 39 22 51 25 348 l4 307 -116 0
-116 0 0 -107 0 -106 -44 -43 c-92 -88 -253 -138 -368 -114 -71 16 -115 43
-142 90 -17 29 -22 56 -25 158 l-3 122 -114 0 c-95 0 -116 -3 -121 -16z"/>
<path d="M9750 1771 c0 -72 3 -90 16 -95 9 -3 92 -6 185 -6 l169 0 0 -335 0
-335 115 0 115 0 2 333 3 332 180 6 c99 3 181 6 183 7 1 1 2 43 2 92 l0 90
-485 0 -485 0 0 -89z"/>
<path d="M10877 1854 c-4 -4 -7 -198 -7 -431 l0 -423 120 0 120 0 -2 428 -3
427 -111 3 c-60 1 -113 -1 -117 -4z"/>
</g>
</svg>
